<!-- icon666.com - MILLIONS vector ICONS FREE --><svg version="1.1" id="Layer_1" xmlns="http://www.w3.org/2000/svg" xmlns:xlink="http://www.w3.org/1999/xlink" x="0px" y="0px" viewBox="0 0 512.002 512.002" style="enable-background:new 0 0 512.002 512.002;" xml:space="preserve"><path style="fill:#A61B67;" d="M85.339,217.22h341.324c12.852,0,23.272,10.421,23.272,23.272v248.236 c0,12.852-10.42,23.272-23.272,23.272H85.339c-12.852,0-23.272-10.42-23.272-23.272V240.492 C62.067,227.641,72.486,217.22,85.339,217.22z"></path><g><path style="fill:#C01E77;" d="M85.339,217.22h170.662V512H85.339c-12.852,0-23.272-10.42-23.272-23.272V240.492 C62.067,227.641,72.486,217.22,85.339,217.22z"></path><path style="fill:#C01E77;" d="M54.309,108.598h403.383c12.852,0,23.272,10.42,23.272,23.272v108.603 c0,12.851-10.42,23.272-23.272,23.272H54.309c-12.852,0-23.272-10.421-23.272-23.272V131.871 C31.037,119.018,41.457,108.598,54.309,108.598z"></path></g><path style="fill:#A61B67;" d="M54.309,108.598h201.691v155.147H54.309c-12.852,0-23.272-10.421-23.272-23.272V131.871 C31.037,119.018,41.457,108.598,54.309,108.598z"></path><path style="fill:#E49429;" d="M442.62,22.689C427.93,8.058,408.403,0,387.637,0c-20.766,0-40.293,8.058-54.983,22.689 l-76.652,76.337l-76.649-76.343C164.656,8.057,145.131,0,124.369,0c-20.76,0-40.289,8.057-54.986,22.686 C54.66,37.344,46.552,56.843,46.552,77.591s8.108,40.247,22.827,54.899c14.669,14.612,34.187,22.658,54.958,22.658l108.392-0.003 v75.69l-70.756,70.756c-9.089,9.089-9.089,23.823,0,32.911c4.544,4.546,10.499,6.819,16.455,6.819 c5.956,0,11.912-2.273,16.455-6.819l37.847-37.845v192.072c0,12.852,10.42,23.272,23.272,23.272 c12.852,0,23.272-10.42,23.272-23.272V296.657l37.847,37.844c4.544,4.546,10.5,6.819,16.455,6.819 c5.956,0,11.912-2.273,16.455-6.819c9.089-9.087,9.089-23.821,0-32.911l-70.756-70.755v-75.692h107.654l0.737,0.003 c20.768,0,40.286-8.044,54.952-22.651c14.725-14.657,22.836-34.157,22.836-54.905C465.45,56.843,457.342,37.342,442.62,22.689z M125.072,108.598c-0.102,0-0.206,0-0.309,0.003h-0.427c-8.372,0-16.225-3.227-22.115-9.093c-5.885-5.857-9.126-13.642-9.126-21.918 s3.241-16.061,9.124-21.918c5.914-5.885,13.779-9.129,22.149-9.129c8.37,0,16.238,3.244,22.146,9.124l53.143,52.93H125.072z M409.775,99.513c-5.886,5.861-13.74,9.089-22.112,9.089h-0.425c-0.102-0.003-0.206-0.003-0.309-0.003h-74.578l53.149-52.928 c5.908-5.885,13.769-9.126,22.14-9.126c8.369,0,16.23,3.241,22.143,9.129c5.885,5.857,9.127,13.642,9.127,21.918 C418.905,85.866,415.664,93.65,409.775,99.513z"></path><path style="fill:#B77220;" d="M442.62,22.689C427.93,8.058,408.403,0,387.637,0c-20.766,0-40.293,8.058-54.983,22.689 l-76.652,76.337V512c12.852,0,23.272-10.42,23.272-23.272V296.657l37.847,37.844c4.544,4.546,10.5,6.819,16.455,6.819 c5.956,0,11.912-2.273,16.455-6.819c9.089-9.087,9.089-23.821,0-32.911l-70.757-70.755v-75.692h107.654l0.737,0.003 c20.768,0,40.286-8.044,54.952-22.651c14.725-14.657,22.836-34.157,22.836-54.905C465.45,56.843,457.342,37.342,442.62,22.689z M409.775,99.513c-5.886,5.861-13.74,9.089-22.112,9.089h-0.425c-0.102-0.003-0.206-0.003-0.309-0.003h-74.578l53.149-52.928 c5.908-5.885,13.769-9.126,22.14-9.126c8.369,0,16.23,3.241,22.143,9.129c5.885,5.857,9.127,13.642,9.127,21.918 C418.905,85.866,415.664,93.65,409.775,99.513z"></path></svg>