<!-- icon666.com - MILLIONS vector ICONS FREE --><svg id="Layer_1" enable-background="new 0 0 135 135" viewBox="0 0 135 135" xmlns="http://www.w3.org/2000/svg"><g><g><path d="m84.392662 30.3904972-7.7399902 7.7900372-28.200016 28.3598633c-5.6099854-11.9899902-17.1499615-19.3798828-28.2700176-26.6899414-1.6999512-1.130127-3.3899536-2.25-5.0499887-3.380127-1.1399536-.7697754-2.4199829-1.9799805-1.9899902-3.3000488 0-.0097656.0100098-.0297852.0200195-.0397949.1699829-.5400391.6199951-.9401855 1.039978-1.3100567 3.6699839-3.25 7.54004-6.6000977 12.2800303-7.6999512 3.3599854-.7800293 6.8699932-.3400879 10.2899761.1098633.0599976.0100098.1300049.0200195.1900024.0300293 15.8099975 2.040039 31.6099891 4.0900878 47.4299964 6.1301269z" fill="#8484b7"></path></g><g><path d="m84.392662 30.3904972-7.7399902 7.7900372c-9.3400268-1.1201172-18.6699867-2.2402344-28.0200233-3.2700196-8.9799805-.9902344-21.419981-1.5600586-28.4500103 4.9399414-1.6999512-1.130127-3.3899536-2.25-5.0499887-3.380127-1.1399536-.7697754-2.4199829-1.9799805-1.9899902-3.3000488 0-.0097656.0100098-.0297852.0200195-.0397949 6.1599741-5.8500957 14.8599863-8.5800762 23.7999878-8.8701153 15.8099965 2.0400391 31.6099881 4.0900879 47.4299954 6.130127z" fill="#9090c4"></path></g><g><path d="m22.1689339 120.1907578c4.1434765 3.7976074 8.7271919 7.1663666 13.6427917 10.0266647 1.0153275.5908051 2.1202393 1.1790619 3.3118019 1.1337128 1.9377289-.0737305 3.4038048-1.8722687 3.6635933-3.6875229.2597923-1.8152542-.3877411-3.6259842-1.0478096-5.348381-2.2899895-5.9755325-4.8481255-11.859375-7.6652336-17.6304321" fill="#7979aa"></path></g><g><path d="m6.3026934 114.8904953c-.0700073.3398438-.1400146.6799316-.1800537 1.0200195-.1199951.2199707-.2399902.4299316-.3599854.6499023z" fill="#9b9ace"></path></g><g><path d="m7.2526445 111.9903488-.9499512 2.9001465c.2299805-1.0100098.5699464-1.9902344.9499512-2.9001465z" fill="#9b9ace"></path></g><g><path d="m131.2726593 11.5604191c.210022 3.8100586-1.4500122 8.2900391-4.429985 11.9499512-15.4700317 19.0100079-34.460022 33.1999512-52.4400024 49.4699707-18.6300087 16.8601074-36.5499916 34.7399902-57.4299927 48.7600098-2.1300058 1.4401855-4.6500254 2.9001465-7.1000376 2.1599121-1.9699707-.5898438-3.3299561-2.5397949-3.7299805-4.5898438-.210022-1.1098633-.2000122-2.2600098-.0200195-3.3999023 10.6400156-19.420166 26.1500244-35.5400391 41.4700317-51.3901367 4.6199951-4.7800293 9.2299805-9.5500488 13.8399658-14.3300781 3.4700356-3.5898438 6.9400063-7.1899414 10.410038-10.7797852 10.9099731-11.2900372 21.960022-22.7001934 35.2199707-30.9799786 3.9800415-2.4799809 8.2900391-4.7202153 12.9400024-5.0302739 7.6500216-.5097676 11.0099993 3.2700176 11.2700091 8.1601548z" fill="#9b9ace"></path></g><g><path d="m107.1126938 107.0604172c-.6900024 1.4599609-1.6500244 2.7199707-2.7800293 3.8500977-1.9400024 1.9699707-4.3699951 3.5400391-6.7299805 5.0200195-.6500244.4099121-1.3200073.8198242-2.0800171.8999023-.0800171.0100098-.1799927.0200195-.2600098.0200195-1.4699707.0100098-2.6699829-1.25-3.6099854-2.5100098-.1199951-.1398926-.2200317-.2800293-.3200073-.420166-7.039978-9.75-16.8399658-20.1799316-25.5700073-28.7099609-.4099731-.3898926-.8200073-.7900391-1.2199707-1.1799316l2.1300049-1.9299316 32.5700073-29.4599609c.7199707 2.4299316 1.3999634 4.8798828 2.0499878 7.329834 2.9599609 11.2600098 5.2099609 22.7102051 6.7000122 34.2600098.5599976 4.3200682.9799805 8.9101561-.8800048 12.830078z" fill="#8484b7"></path></g><g><path d="m23.2503281 89.3341141c-5.2302532-3.5126801-11.2248688-5.494751-17.3580322-5.739296-.4571233-.0182266-.965498-.0058365-1.3213253.3652267-.2663498.2777557-.3870754.6997147-.4667916 1.1040878-.5090425 2.5821762.1639514 5.1936417.9679804 7.5727997 1.5284429 4.5227432 3.5589571 8.7738953 6.0249596 12.6140747" fill="#8a8ac1"></path></g><g><path d="m131.2726593 11.5604191c-10.4399948-1.6098633-23.5299606 5.75-31.3699875 10.6298828-11.6400146 7.2602539-21.5900269 17.0600567-29.6799927 28.090086-2.460022 3.3400879-6.9700356 2.4001465-8.7900429-.0900879 3.4700356-3.5898438 6.9400063-7.1899414 10.410038-10.7797852 10.9099731-11.2900372 21.960022-22.7001934 35.2199707-30.9799786 3.9800415-2.4799809 8.2900391-4.7202153 12.9400024-5.0302739 7.6500245-.5097656 11.0100022 3.2700196 11.270012 8.1601568z" fill="#a4a4d8"></path></g><g><path d="m104.3326645 110.9105148c-1.9400024 1.9699707-4.3699951 3.5400391-6.7299805 5.0200195-.6500244.4099121-1.3200073.8198242-2.0800171.8999023-.0800171.0100098-.1799927.0200195-.2600098.0200195-1.2099609-.8200684-2.4199829-1.6499023-3.6099854-2.5100098-.1199951-.1398926-.2200317-.2800293-.3200073-.420166-7.039978-9.75-16.8399658-20.1799316-25.5700073-28.7099609.1900024-1.0698242.5-2.0998535.9100342-3.1098633l32.5700073-29.4599609c.7199707 2.4299316 1.3999634 4.8798828 2.0499878 7.329834-.2900391.3701172-.6400146.7199707-1.0599976 1.0400391-5.2300414 3.9299317-10.1500243 8.2700196-14.7200316 12.959961-2.8499756 2.920166-11.2399902 9.8901367-9.7199707 14.4401855.8399658 2.5200195 4.6699829 4.7597656 6.6499634 6.4099121 2.5400391 2.1101074 5.1100464 4.1699219 7.7399902 6.1599121 4.5900268 3.4799805 9.3300171 6.7800293 14.1500244 9.9301758z" fill="#7979aa"></path></g><path d="m127.287468 2.9424164c-5.7667694-2.6235149-12.8858261-.4152782-18.4577637 2.7622068-10.3041382 6.0822754-18.6616211 13.7229014-25.904541 20.8676768-.7558594.755127-1.4935913 1.5019531-2.2264404 2.2460938-3.1916962-1.5411358-47.3966446-8.1098995-54.0822792-6.7619629-5.2880859 1.0478821-9.4748745 4.6200333-13.3859253 8.1711426-.3638306.3652344-.8253784.6408691-1.4417725 1.5786133-.8866215 1.4236832-.722229 3.303318.9133301 4.9421387 1.3938961 1.3986053 2.6617584 1.7759781 14.5917969 9.3913574 5.7410278 3.6538811 10.9513397 7.423584 15.4197388 12.5449219 2.1799927 2.5766602 3.5344238 4.7175293 4.2947388 5.8308067-.3239136.151123-.829834.4970703-1.6777954 1.2058105-1.7454834 1.4753418-4.9717407 4.4384766-10.864624 10.4790039-4.518589 4.6605453-7.9207363 8.4122925-11.4870605 12.5600586-1.5709019-1.8895264-6.5965786-5.1228485-12.9760742-6.4453125-3.4230576-.718811-5.7473903-1.0496368-7.0366821.5852051-.8192322 1.0309906-1.0455385 3.0595932-1.0264894 4.3764648.0549557 4.9818726 3.9361687 13.5097198 6.8096313 16.9003906.4335938.501709.7727661.8085938 1.0584106 1.005127-.2890015.4001465-.574585.7851563-.8658447 1.1955566-2.4060245 3.5650406-4.1203294 7.1263885-3.7655029 11.4355469.0611572.7497559.1853027 1.4938965.3545532 2.2285156 1.2440534 4.5633163 3.8492651 6.7890244 8.2238159 5.4912109 2.526432-.7287979 5.037487-2.5678253 8.8134155-5.2487793 2.7844849 3.4205704 13.171524 13.128891 17.5935669 12.932373 3.7908859-.1128845 6.594162-2.7198792 5.5891113-9.2016602-.9852753-5.406662-4.3004227-12.2055969-6.6827393-15.456543-.1811523-.2436523-.3471069-.4533691-.5004883-.6352539 5.8286133-4.8410645 11.8883667-10.1862793 18.2474365-16.0283203 2.5296021-2.3054199 5.1819458-4.7602539 7.9478798-7.3205566.7354126.9865723 2.4586182 2.9384766 4.8123779 5.6674805 6.7938232 7.8295822 13.7316895 16.361351 19.6682129 24.8134766 1.4500885 2.0283737 3.2129974 4.6283264 6.210144 4.3308105 1.6499176-.1655655 4.1297073-1.850502 6.1340332-3.220459 1.7211304-1.1796875 3.4100342-2.5046387 4.8255615-4.1467285 4.0521469-4.6232529 4.2107239-10.0852585 3.4770508-16.199707-1.3570557-10.7004395-2.9973755-18.6542969-4.4075928-24.626709-1.4308472-5.9650879-2.6286621-9.9360313-3.5370483-12.586422-1.2060547-3.4755859-1.8766479-4.685791-2.3443604-5.0678711 8.880661-7.8590164 17.1135406-15.5649605 24.9129639-24.5859375 5.7706375-6.4602489 11.4554977-15.1278543 6.87957-22.4699707-.970703-1.5827646-2.4780882-2.8317878-4.1063154-3.5397956zm-116.05579 99.7748993c-.9177608-2.5586624-5.0704517-11.031105-5.3035889-15.5446777-.018414-.3084641-.0007057-1.6357498.0814819-1.6877441.0117798-.0085449.0255127-.0153809.0410156-.0217285.1014419.0040894 1.3286195-.0421906 3.4194946.1865234 6.5519295.6992569 11.1072025 3.0616608 13.052002 3.6418457-3.3356934 3.8818359-7.12146 8.3410645-11.1713867 13.7802734-.0386352-.1166993-.0705566-.2233887-.1190185-.3544922zm25.288147 7.1826172c1.167099 3.4317551 4.2701988 9.5729599 5.2171631 14.8041992.4283829 2.4029999.5148201 4.5445862-1.7666626 4.7648926-2.1886559.3470459-13.5077286-7.9552002-16.4575806-9.8601074.0977173-.0708008.1951904-.1376953.2929077-.2092285 4.09552-2.9294434 8.3060913-6.1875 12.6414795-9.7282715.0262451.0795898.0432129.1435546.0726929.2285156zm62.646122-50.541256c.5688477 2.7111816 1.4088745 6.7150841 2.6519165 12.6401329 1.1896973 5.9240723 2.697937 13.8122559 4.0286865 24.3037109.9549103 8.2608795.1380539 12.0568924-6.4141235 16.7912598-.36409.2628937-3.6969528 2.6312332-4.3519897 2.730957-1.073967.1195602-2.4409332-1.8791199-3.1069946-2.7573242-10.6258088-14.03199-23.0806657-26.1457748-26.8517457-28.8251953 19.518959-18.0668411 18.7050629-16.8023758 33.329834-29.6852989-.0003663.8146973.1903076 2.2387695.7144165 4.8017578zm22.72406-32.6965332c-15.0320816 17.0037956-23.7148438 22.0325661-67.822876 62.2268028-5.345993 4.9113388-34.8221359 30.972168-41.4275513 32.8740234-3.0150337.9502411-3.115324-2.4059525-3.3425293-2.6303711-.130249-.5510254-.2263794-1.0979004-.2755127-1.6396484-.3009253-3.3555374 1.1647558-6.2053146 3.03302-9.0195313 6.812624-9.8337326 16.5686302-21.356926 24.5203857-30.3122559 5.5897827-6.2561035 8.5039673-9.5283203 9.8963013-11.3391113.5958862-.7661133.914917-1.2521973 1.0809326-1.5844727.0826416.0830078.1455078.1203613.1871948.0996094.0421753-.015625.0281372-.1833496-.0441284-.4685059.0354004-.1850586-.0215454-.2780762-.098877-.3527832-.0011597-.0012207-.0026245-.001709-.0037842-.0029297-.3885498-1.2241173-1.4805908-3.7148399-3.6293945-6.8037071-4.0349312-5.6152878-9.410614-9.9811172-15.0640259-13.9604492-.1002293-.0707283-2.9706535-2.1057816-12.7365723-8.6806641-.2864227-.2019501-1.2225828-.9399033-1.2687988-1.2736816-.0101318-.0620117.0090332-.1254883.0474243-.1687012-.0595093.0524902.3199463-.3200684.7193604-.6467285 3.3460541-2.8738689 7.3021965-6.2181911 11.7173462-7.0061035 6.1808548-1.1304836 40.2005043 4.8546982 51.6983681 4.5039063-5.576969 5.7250977-10.4836463 11.0642091-14.7885779 15.6208497-13.1985397 14.103096-16.8452644 18.2695885-16.691349 18.4182091.1911964.1847305 6.2866402-5.7402763 17.8314247-17.3166466 5.4435425-5.407959 11.7853394-12.0080566 19.0841675-18.9938965 7.3147583-6.9240723 15.7312012-14.3042002 25.7288818-19.9904785 4.6539536-2.563962 10.9987564-4.6768541 15.7359009-2.4162598 1.1451416.5214844 2.0660934 1.3295898 2.6861496 2.3588867 3.6268921 5.981535-2.4820786 13.8095723-6.7728806 18.5046387z" fill="#202020"></path></g></svg>