<!-- icon666.com - MILLIONS vector ICONS FREE --><svg id="Layer_1" enable-background="new 0 0 468.368 468.368" viewBox="0 0 468.368 468.368" xmlns="http://www.w3.org/2000/svg"><g><g><g><path d="m387.287 50.96h-17.893c-2.19 0-4.252-1.032-5.567-2.786-2.105-2.81-5.263-6.156-8.4-6.057-3.523.095-7.086 4.259-8.057 5.711-1.292 1.932-3.487 3.132-5.809 3.132h-15.905c-3.843 0-6.958-3.118-6.958-6.965s3.115-6.965 6.958-6.965h12.525c3.094-3.497 8.906-8.571 16.748-8.834 6.413-.223 12.38 2.753 17.766 8.834h14.591c3.843 0 6.958 3.118 6.958 6.965s-3.114 6.965-6.957 6.965z" fill="#d9e7f4"></path></g><g><ellipse cx="412.635" cy="45.487" fill="#d9e7f4" rx="8.449" ry="8.458"></ellipse></g><g><ellipse cx="379.534" cy="119.622" fill="#d9e7f4" rx="8.449" ry="8.458"></ellipse></g></g><g><g><path d="m76.772 80.96h-17.892c-2.19 0-4.252-1.032-5.567-2.786-2.105-2.81-5.263-6.156-8.4-6.057-3.523.095-7.086 4.259-8.057 5.711-1.292 1.932-3.487 3.132-5.809 3.132h-15.905c-3.843 0-6.958-3.118-6.958-6.965s3.115-6.965 6.958-6.965h12.525c3.094-3.497 8.906-8.571 16.748-8.834 6.413-.223 12.38 2.753 17.766 8.834h14.591c3.843 0 6.958 3.118 6.958 6.965.001 3.847-3.114 6.965-6.958 6.965z" fill="#d9e7f4"></path></g><g><ellipse cx="102.12" cy="75.487" fill="#d9e7f4" rx="8.449" ry="8.458"></ellipse></g></g><g><path d="m455.852 468.204h-407.415c-2.761 0-5-2.238-5-5s2.239-5 5-5h407.415c2.761 0 5 2.238 5 5s-2.239 5-5 5z" fill="#5a2c42"></path></g><g><path d="m28.437 468.204h-15.921c-2.761 0-5-2.238-5-5s2.239-5 5-5h15.921c2.761 0 5 2.238 5 5s-2.238 5-5 5z" fill="#5a2c42"></path></g><g><g id="XMLID_341_"><g id="XMLID_349_"><g id="XMLID_351_"><ellipse cx="113.306" cy="401.612" fill="#5a2c42" rx="62.72" ry="62.075"></ellipse></g><g id="XMLID_350_"><path d="m113.306 441.957c-22.246 0-40.345-18.099-40.345-40.345s18.099-40.345 40.345-40.345 40.345 18.099 40.345 40.345-18.099 40.345-40.345 40.345z" fill="#f1f1f1"></path></g><g><path d="m184.153 292.181h-149.705v-84.25c0-5.523 4.477-10 10-10h129.704c5.523 0 10 4.477 10 10v84.25z" fill="#eee"></path></g></g><g id="XMLID_56_"><g id="XMLID_348_"><ellipse cx="401.919" cy="401.612" fill="#5a2c42" rx="62.72" ry="62.075"></ellipse></g><g id="XMLID_347_"><path d="m401.919 441.957c-22.246 0-40.345-18.099-40.345-40.345s18.099-40.345 40.345-40.345 40.345 18.099 40.345 40.345-18.099 40.345-40.345 40.345z" fill="#f1f1f1"></path></g></g><g id="XMLID_55_"><path d="m468.148 369.21c-17.139-83.634-114.11-83.634-114.11-83.634l-41.698 29.064-28.045 62.866v3.739h55.776c42.383-71.323 130.142-1.957 128.077-12.035z" fill="#3f57ae"></path></g><g id="XMLID_54_"><path d="m376.073 258.689-36.528-114.383-39.668-1.146 21.82 89.06c6.265 25.57.104 52.622-16.592 72.865l-14.367 17.418h-59.297c-11.279 0-18.003-12.692-11.74-22.16l20.189-30.526s-179.179-88.859-231.281 19.321c-37.522 77.907 62.442 92.107 62.442 92.107h225.961l73.736-93.195c6.541-8.266 8.541-19.292 5.325-29.361z" fill="#4364d2"></path></g><g id="XMLID_342_"><path d="m307.625 125.622h-58.204c-3.313 0-6-2.687-6-6s2.687-6 6-6h58.204c3.313 0 6 2.687 6 6s-2.687 6-6 6z" fill="#6a3b52"></path></g><g id="XMLID_53_"><path d="m176.009 324.076c14.615 19.785 19.562 41.616 20.996 57.169h-80.889-45.065s-34.394-4.895-55.26-24.663c-5.935-5.623-10.772-12.448-13.413-20.709 37.347-27.073 125.8-76.548 173.631-11.797z" fill="#3f57ae"></path></g><g id="XMLID_96_"><path d="m153.589 363.281c-.664 0-1.339-.111-2.001-.346l-82.75-29.271c-3.124-1.104-4.761-4.533-3.656-7.657 1.104-3.124 4.533-4.763 7.658-3.655l82.75 29.271c3.124 1.104 4.761 4.533 3.656 7.657-.872 2.462-3.186 4.001-5.657 4.001z" fill="#fff"></path></g><g id="XMLID_42_"><path d="m321.9 144.306h33.194v-25.376c0-7.869-6.32-14.249-14.116-14.249h-9.71c-9.247 0-18.239 3.058-25.602 8.706l-8.128 6.235v23.538z" fill="#eee"></path></g></g><g><g><path d="m54.741 104.682h109.12v92.982h-109.12z" fill="#9f7638"></path></g><g><path d="m128.96 151.173-19.659-20.173-19.66 20.173v-46.491h39.319z" fill="#845b1d"></path></g></g></g><g><g><path d="m201.184 142.774h66v157.844h-66z" fill="#ffc5b7"></path></g><g><g><path d="m331.184 468.368c11.046 0 20-8.954 20-20v-104.799c0-53.072-35.34-97.883-83.769-112.204v49.904h-66.461v-49.904c-48.429 14.321-83.769 59.132-83.769 112.204v104.798c0 11.046 8.954 20 20 20h193.999z" fill="#ef5350"></path></g><g><g><path d="m204.184 298.97 30-17.653-33.231-39.899v-19.973c-.053.016-.117.035-.191.058-20.368 6.27-28.747 30.601-16.675 48.188z" fill="#dd2c2c"></path></g><g><path d="m266.184 298.97-32-17.653 33.231-39.899v-19.973c.237.07.697.215 1.344.423 19.911 6.39 28.266 30.032 16.795 47.54z" fill="#dd2c2c"></path></g></g><g><path d="m307.399 252.334-85.187 216.034h23.943l78.475-199.013c-5.137-6.253-10.92-11.952-17.231-17.021z" fill="#5a2c42"></path></g><g><circle cx="234.514" cy="326.933" fill="#dd2c2c" r="6"></circle></g><g><circle cx="234.514" cy="366.933" fill="#dd2c2c" r="6"></circle></g></g><g><g><g><ellipse cx="309.439" cy="130.699" fill="#eea0a0" rx="20.996" ry="21.047"></ellipse></g><g><ellipse cx="160.131" cy="130.699" fill="#eea0a0" rx="20.996" ry="21.047"></ellipse></g><g><path d="m234.184 10.12c-49.215 0-91 19.888-91 73.894 0 46.775 39.337 84.844 88.385 86.155.869.023 1.74.038 2.615.038 50.258 0 91-38.59 91-86.193s-40.742-73.894-91-73.894z" fill="#5a2c42"></path></g><g><path d="m236.557 216.055h-4.746c-38.332 0-69.407-31.074-69.407-69.407v-58.221c0-22.091 17.909-40 40-40h63.559c22.091 0 40 17.909 40 40v58.222c.001 38.332-31.074 69.406-69.406 69.406z" fill="#fed9c9"></path></g></g><g><g><path d="m234.184 172.098c-2.761 0-5-2.237-5-4.996v-9.512c0-2.759 2.239-4.996 5-4.996 2.761 0 5 2.237 5 4.996v9.512c0 2.759-2.239 4.996-5 4.996z" fill="#eea0a0"></path></g><g><g><ellipse cx="272.184" cy="132.098" fill="#5a2c42" rx="6" ry="7.5"></ellipse></g><g><path d="m283.828 109.199c-.866 0-1.736-.268-2.455-.816-5.324-4.067-13.053-4.067-18.377 0-1.641 1.253-4.07 1.04-5.427-.473-1.357-1.514-1.127-3.757.513-5.009 8.172-6.241 20.034-6.24 28.205 0 1.64 1.253 1.87 3.495.513 5.009-.763.85-1.864 1.289-2.972 1.289z" fill="#5a2c42"></path></g></g><g><g><ellipse cx="196.184" cy="132.098" fill="#5a2c42" rx="6" ry="7"></ellipse></g><g><path d="m207.828 109.199c-.866 0-1.736-.268-2.455-.816-5.324-4.067-13.053-4.067-18.377 0-1.641 1.253-4.07 1.04-5.427-.473-1.357-1.514-1.127-3.757.513-5.009 8.172-6.241 20.034-6.24 28.205 0 1.64 1.253 1.87 3.495.513 5.009-.763.85-1.864 1.289-2.972 1.289z" fill="#5a2c42"></path></g></g><g><ellipse cx="273.684" cy="161.296" fill="#ffc5b7" rx="10" ry="12"></ellipse></g><g><ellipse cx="194.684" cy="161.296" fill="#ffc5b7" rx="10" ry="12"></ellipse></g><g><path d="m222.54 187.939c.866 0 1.736.267 2.455.815 5.324 4.061 13.053 4.061 18.377 0 1.641-1.251 4.07-1.039 5.427.473s1.127 3.751-.513 5.002c-8.172 6.232-20.034 6.231-28.205 0-2.849-2.173-.858-6.29 2.459-6.29z" fill="#bf5377"></path></g></g></g><g><g><path d="m143.135 83.999-.451-.636h183c-44.238 63.32-137.872 63.646-182.549.636z" fill="#dd2c2c"></path></g><g><path d="m301.755 14.153c-42.869-18.808-91.642-18.873-134.56-.178l-.485.211c-14.591 6.356-24.026 20.757-24.026 36.672v32.505h183v-32.581c0-15.876-9.39-30.25-23.929-36.629z" fill="#ffb300"></path></g><g><ellipse cx="234.184" cy="48.427" fill="#dd2c2c" rx="19" ry="12.779"></ellipse></g></g></g></g></svg>