<!-- icon666.com - MILLIONS vector ICONS FREE --><svg viewBox="0 0 512 512.001" xmlns="http://www.w3.org/2000/svg"><path d="m512 256c0 141.386719-114.613281 256-256 256-141.382812 0-256-114.613281-256-256s114.617188-256 256-256c141.386719 0 256 114.613281 256 256zm0 0" fill="#f50"></path><path d="m512 256c0-6.714844-.261719-13.371094-.769531-19.957031l-153.230469-153.230469-204 346.375 82.042969 82.042969c6.585937.507812 13.242187.769531 19.957031.769531 141.386719 0 256-114.613281 256-256zm0 0" fill="#e82e10"></path><path d="m154 82.8125h204v346.375h-204zm0 0" fill="#414952"></path><path d="m255.605469 82.8125h102.394531v346.375h-102.394531zm0 0" fill="#333940"></path><path d="m184.316406 117.679688h143.367188v276.640624h-143.367188zm0 0" fill="#1ad635"></path><path d="m255.605469 117.679688h72.078125v276.640624h-72.078125zm0 0" fill="#1cb71c"></path><path d="m223.015625 181.984375h209.335937v148.03125h-209.335937zm0 0" fill="#fff"></path><path d="m327.121094 181.984375h105.230468v148.03125h-105.230468zm0 0" fill="#dce1eb"></path><path d="m223.015625 330.015625 104.667969-106.226563 104.667968 106.226563zm0 0" fill="#bec3d2"></path><path d="m327.683594 223.789062.003906.570313v105.65625h104.664062zm0 0" fill="#afb4c8"></path><path d="m432.351562 181.984375-104.667968 91.148437-104.667969-91.148437zm0 0" fill="#dce1eb"></path><path d="m327.683594 273.132812 104.667968-91.148437h-104.667968zm0 0" fill="#cdd2e1"></path></svg>