<!-- icon666.com - MILLIONS vector ICONS FREE --><svg viewBox="0 0 64 64" xmlns="http://www.w3.org/2000/svg"><path d="m52 48a3.9963 3.9963 0 0 0 -4-4h-32a3.9963 3.9963 0 0 0 -4 4v11.999a3.998 3.998 0 0 0 4 4.001h32a3.998 3.998 0 0 0 4-4.001z" fill="#ffd700" fill-rule="evenodd"></path><path d="m16 64v-20h-2a13.9983 13.9983 0 0 0 -14 13.999v6.001z" fill="#001130" fill-rule="evenodd"></path><path d="m48 64v-20h2a13.9983 13.9983 0 0 1 14 13.999v6.001z" fill="#001130" fill-rule="evenodd"></path><circle cx="32" cy="44" fill="#a03c32" r="10"></circle><g fill-rule="evenodd"><path d="m22 44a10.0021 10.0021 0 0 1 -10-10.001v-24a7.9976 7.9976 0 0 1 8-7.999h24a7.9976 7.9976 0 0 1 8 7.999v24a10.0021 10.0021 0 0 1 -10 10.001z" fill="#d26446"></path><path d="m52 18v-.002a10 10 0 0 0 -20 0v26.002h10a10.0021 10.0021 0 0 0 10-10.001z" fill="#be5a46"></path><path d="m12 18v.001a10 10 0 0 0 20-.001v-16h-12a7.9984 7.9984 0 0 0 -8 8z" fill="#e17350"></path><path d="m26.34 29.659a8.0116 8.0116 0 0 0 11.32 0l2.83 2.828a12.0174 12.0174 0 0 1 -16.98 0z" fill="#a03c32"></path><path d="m52 7.999a7.9976 7.9976 0 0 0 -8-7.999h-24a7.9976 7.9976 0 0 0 -8 7.999v16.001a3.9963 3.9963 0 0 0 4-3.999v-12.001a3.9963 3.9963 0 0 1 4-4h24a3.9963 3.9963 0 0 1 4 4v12.001a3.9963 3.9963 0 0 0 4 3.999z" fill="#001130"></path><path d="m4 15.998a2.0076 2.0076 0 0 1 2-1.999v-.002a6.0008 6.0008 0 0 1 6-5.997h12a6.0039 6.0039 0 0 1 6 6v2h4v-2a6.0039 6.0039 0 0 1 6-6h12a6.0019 6.0019 0 0 1 6 5.999v.001a2.0059 2.0059 0 0 1 2 2v4a2.0076 2.0076 0 0 1 -2 2v.001a6.0026 6.0026 0 0 1 -6 5.999h-12a6.0056 6.0056 0 0 1 -6-6.001 2 2 0 0 0 -4 0 6.0056 6.0056 0 0 1 -6 6.001h-12a6.0023 6.0023 0 0 1 -6-5.998v-.002a2.0076 2.0076 0 0 1 -2-1.999z" fill="#004260"></path></g><rect fill="#dfeef8" height="12" rx="2" width="16" x="10" y="12"></rect><path d="m39.999 12h12.001a2 2 0 0 1 2 2v8a2 2 0 0 1 -2 2h-12a2 2 0 0 1 -2-2v-8.001a1.999 1.999 0 0 1 1.999-1.999z" fill="#dfeef8"></path><path d="m15.172 15.172h5.657v5.657h-5.657z" fill="#004260" transform="matrix(.707 -.707 .707 .707 -7.456 18)"></path><path d="m18 14a3.9985 3.9985 0 0 0 -4 3.998v.002a4 4 0 0 0 4-4z" fill="#f9f6f6" fill-rule="evenodd"></path><path d="m22 18a4 4 0 0 0 -4 4 4 4 0 0 0 4-4z" fill="#001130" fill-rule="evenodd"></path><path d="m18 14a3.9985 3.9985 0 0 1 4 3.998v.002a4 4 0 0 1 -4-4z" fill="#001130" fill-rule="evenodd"></path><path d="m14 18a4 4 0 0 1 4 4 4 4 0 0 1 -4-4z" fill="#001130" fill-rule="evenodd"></path><path d="m43.172 15.172h5.657v5.657h-5.657z" fill="#004260" transform="matrix(.707 -.707 .707 .707 .745 37.799)"></path><path d="m46 14a3.9985 3.9985 0 0 0 -4 3.998v.002a4 4 0 0 0 4-4z" fill="#f9f6f6" fill-rule="evenodd"></path><path d="m50 18a3.9985 3.9985 0 0 0 -4 3.998v.002a4 4 0 0 0 4-4z" fill="#001130" fill-rule="evenodd"></path><path d="m46 14a3.9985 3.9985 0 0 1 4 3.998v.002a3.9985 3.9985 0 0 1 -4-3.998z" fill="#001130" fill-rule="evenodd"></path><path d="m42 18a4 4 0 0 1 4 4 4 4 0 0 1 -4-4z" fill="#001130" fill-rule="evenodd"></path></svg>