<!-- icon666.com - MILLIONS vector ICONS FREE --><svg version="1.1" id="Layer_1" xmlns="http://www.w3.org/2000/svg" xmlns:xlink="http://www.w3.org/1999/xlink" x="0px" y="0px" viewBox="0 0 512 512" style="enable-background:new 0 0 512 512;" xml:space="preserve"><circle style="fill:#FF6838;" cx="256" cy="256" r="256"></circle><path style="fill:#AE4E32;" d="M512,256c0-18.354-1.948-36.252-5.618-53.512L392.209,88.316L122.34,426.427l79.901,79.901 C219.577,510.033,237.558,512,256,512C397.384,512,512,397.384,512,256z"></path><path style="fill:#FFFFFF;" d="M371.109,78.222H205.362l-91.582,91.584v236.858c0,14.976,12.14,27.115,27.115,27.115h230.214 c14.976,0,27.115-12.14,27.115-27.115V105.338C398.222,90.362,386.082,78.222,371.109,78.222z"></path><g><path style="fill:#E0E0E0;" d="M371.109,78.222H256.002v355.556h115.107c14.976,0,27.115-12.14,27.115-27.115V105.338 C398.224,90.362,386.082,78.222,371.109,78.222z"></path><path style="fill:#E0E0E0;" d="M178.247,169.806c14.976,0,27.115-12.14,27.115-27.115V78.222l-91.584,91.584H178.247z"></path></g><path style="fill:#175D76;" d="M323.505,186.971L211.358,213.03v87.876c-7.111-2.177-15.87-1.969-24.529,1.153 c-17.017,6.135-27.183,21.18-22.704,33.599c4.479,12.421,21.904,17.515,38.922,11.378c14.155-5.104,23.559-16.368,23.749-27.162 h0.016v-94.57l81.239-18.877v94.863c-7.109-2.177-15.869-1.967-24.524,1.155c-17.017,6.135-27.183,21.178-22.704,33.599 s21.904,17.515,38.922,11.378c14.324-5.165,23.79-16.639,23.759-27.548h0.002L323.505,186.971z"></path><path style="fill:#00263F;" d="M256.072,202.64v15.867l51.977-12.078v94.863c-7.109-2.177-15.869-1.967-24.524,1.155 c-17.018,6.137-27.183,21.18-22.704,33.599s21.904,17.515,38.922,11.378c14.324-5.165,23.79-16.639,23.759-27.548h0.002V186.971 L256.072,202.64z"></path></svg>