<!-- icon666.com - MILLIONS vector ICONS FREE --><svg version="1.1" id="Capa_1" xmlns="http://www.w3.org/2000/svg" xmlns:xlink="http://www.w3.org/1999/xlink" x="0px" y="0px" viewBox="0 0 512 512" style="enable-background:new 0 0 512 512;" xml:space="preserve"><polygon style="fill:#ED8A19;" points="381.149,18.9 344.276,114.759 291.31,88.276 319.559,17.655 256,17.655 192.441,17.655 220.69,88.276 167.724,114.759 130.851,18.9 0,123.586 0,229.517 105.931,256 105.931,512 256,512 406.069,512 406.069,256 512,229.517 512,123.586 "></polygon><g><polygon style="fill:#C5411E;" points="0,194.207 0,229.517 105.931,256 105.931,220.69 "></polygon><polygon style="fill:#C5411E;" points="512,194.207 512,229.517 406.069,256 406.069,220.69 "></polygon></g><path style="fill:#AD6218;" d="M256,220.69c-4.873,0-8.828-3.955-8.828-8.828V88.276c0-4.873,3.955-8.828,8.828-8.828 s8.828,3.955,8.828,8.828v123.586C264.828,216.735,260.873,220.69,256,220.69z"></path><g><path style="fill:#C5411E;" d="M308.966,150.069H291.31c-4.873,0-8.828-3.955-8.828-8.828s3.955-8.828,8.828-8.828h17.655 c4.873,0,8.828,3.955,8.828,8.828S313.838,150.069,308.966,150.069z"></path><path style="fill:#C5411E;" d="M308.966,185.379H291.31c-4.873,0-8.828-3.955-8.828-8.828c0-4.873,3.955-8.828,8.828-8.828h17.655 c4.873,0,8.828,3.955,8.828,8.828C317.793,181.425,313.838,185.379,308.966,185.379z"></path></g><g><path style="fill:#FFFFFF;" d="M344.276,414.897h-70.621c-4.873,0-8.828-3.955-8.828-8.828V282.483 c0-4.873,3.955-8.828,8.828-8.828h70.621c4.873,0,8.828,3.955,8.828,8.828v123.586 C353.103,410.942,349.149,414.897,344.276,414.897z M282.483,397.241h52.966V291.31h-52.966V397.241z"></path><path style="fill:#FFFFFF;" d="M167.724,326.621c-2.26,0-4.52-0.865-6.241-2.586c-3.452-3.452-3.452-9.031,0-12.482l35.31-35.31 c3.443-3.452,9.039-3.452,12.482,0c3.452,3.452,3.452,9.031,0,12.482l-35.31,35.31 C172.244,325.756,169.984,326.621,167.724,326.621z"></path><path style="fill:#FFFFFF;" d="M203.034,414.897c-4.873,0-8.828-3.955-8.828-8.828V282.483c0-4.873,3.955-8.828,8.828-8.828 c4.873,0,8.828,3.955,8.828,8.828v123.586C211.862,410.942,207.907,414.897,203.034,414.897z"></path><path style="fill:#FFFFFF;" d="M238.345,414.897h-70.621c-4.873,0-8.828-3.955-8.828-8.828s3.955-8.828,8.828-8.828h70.621 c4.873,0,8.828,3.955,8.828,8.828S243.218,414.897,238.345,414.897z"></path></g><rect x="105.931" y="476.69" style="fill:#C5411E;" width="300.138" height="35.31"></rect><polygon style="fill:#AD6218;" points="300.138,88.276 211.862,88.276 185.379,17.655 326.621,17.655 "></polygon><g><polygon style="fill:#C5411E;" points="123.586,0 185.379,0 220.69,88.276 167.724,114.759 "></polygon><polygon style="fill:#C5411E;" points="388.414,0 326.621,0 291.31,88.276 344.276,114.759 "></polygon></g></svg>